<?xml version="1.0" encoding="UTF-8" standalone="no"?>
<!-- Created with Inkscape (http://www.inkscape.org/) -->
<svg
   xmlns:a="http://ns.adobe.com/AdobeSVGViewerExtensions/3.0/"
   xmlns:svg="http://www.w3.org/2000/svg"
   xmlns="http://www.w3.org/2000/svg"
   xmlns:xlink="http://www.w3.org/1999/xlink"
   version="1.0"
   width="128"
   height="128"
   id="svg3736">
  <defs
     id="defs3738">
    <clipPath
       id="XMLID_12_">
					<use
   id="use3370"
   x="0"
   y="0"
   width="228"
   height="228"
   xlink:href="#XMLID_4_" />

				</clipPath>
    <radialGradient
       cx="167.7881"
       cy="143.93159"
       r="12.3218"
       fx="167.7881"
       fy="143.93159"
       id="XMLID_13_"
       gradientUnits="userSpaceOnUse">
					<stop
   style="stop-color:white;stop-opacity:1"
   offset="0"
   id="stop3373" />

					<stop
   style="stop-color:black;stop-opacity:1"
   offset="1"
   id="stop3375" />

					<a:midPointStop
   offset="0"
   style="stop-color:#FFFFFF" />

					<a:midPointStop
   offset="0.5028"
   style="stop-color:#FFFFFF" />

					<a:midPointStop
   offset="1"
   style="stop-color:#000000" />

				</radialGradient>
    <clipPath
       id="XMLID_10_">
					<use
   id="use3355"
   x="0"
   y="0"
   width="228"
   height="228"
   xlink:href="#XMLID_1_" />

				</clipPath>
    <radialGradient
       cx="158.5034"
       cy="140.87601"
       r="14.7914"
       fx="158.5034"
       fy="140.87601"
       id="XMLID_11_"
       gradientUnits="userSpaceOnUse"
       gradientTransform="matrix(1.0191,0,0,1.1269,-6.7067,-10.8416)">
					<stop
   style="stop-color:white;stop-opacity:1"
   offset="0"
   id="stop3358" />

					<stop
   style="stop-color:black;stop-opacity:1"
   offset="1"
   id="stop3360" />

					<a:midPointStop
   offset="0"
   style="stop-color:#FFFFFF" />

					<a:midPointStop
   offset="0.5"
   style="stop-color:#FFFFFF" />

					<a:midPointStop
   offset="1"
   style="stop-color:#000000" />

				</radialGradient>
    <clipPath
       id="XMLID_14_">
					<use
   id="use3390"
   x="0"
   y="0"
   width="228"
   height="228"
   xlink:href="#XMLID_7_" />

				</clipPath>
    <radialGradient
       cx="114"
       cy="114"
       r="114"
       fx="114"
       fy="114"
       id="XMLID_15_"
       gradientUnits="userSpaceOnUse">
					<stop
   style="stop-color:white;stop-opacity:1"
   offset="0"
   id="stop3393" />

					<stop
   style="stop-color:red;stop-opacity:1"
   offset="1"
   id="stop3395" />

					<a:midPointStop
   offset="0"
   style="stop-color:#FFFFFF" />

					<a:midPointStop
   offset="0.5"
   style="stop-color:#FFFFFF" />

					<a:midPointStop
   offset="1"
   style="stop-color:#FF0000" />

				</radialGradient>
<filter id="Gaussian_Blur">
<feGaussianBlur in="SourceAlpha" stdDeviation="1" />
</filter>
  </defs>
  <g
     id="layer1">
    <g
       transform="translate(-67.95089,-105.8375)"
       id="shadow">
			<g
   style="opacity:0.5;filter:url(#Gaussian_Blur);"
   id="g3336">
				<g
   id="g3338">
					<path
   d="M 132.203,150.82 L 150.199,147.751 C 153.466,152.872 155.769,158.511 157.111,164.663 C 160.48,159.679 163.022,156.19 164.742,154.195 C 167.045,151.514 168.946,149.77 170.44,148.962 C 171.935,148.155 173.525,147.751 175.211,147.751 C 177.101,147.751 178.553,148.272 179.567,149.314 C 180.582,150.354 181.089,151.761 181.089,153.53 C 181.089,155.198 180.581,156.559 179.567,157.619 C 178.552,158.678 177.291,159.205 175.778,159.205 C 174.678,159.205 173.415,158.99 171.988,158.557 C 170.559,158.124 169.573,157.907 169.022,157.907 C 167.578,157.907 166.204,158.425 164.898,159.456 C 163.107,160.865 160.908,163.874 158.295,168.479 C 161.207,178.772 163.534,185.047 165.282,187.309 C 166.309,188.649 167.353,189.317 168.417,189.317 C 169.307,189.317 170.078,189.075 170.729,188.588 C 171.721,187.805 173.248,185.842 175.303,182.705 L 177.192,183.832 C 174.177,188.916 171.231,192.498 168.355,194.576 C 166.163,196.185 164.004,196.992 161.88,196.992 C 159.686,196.992 157.862,196.5 156.405,195.515 C 154.949,194.529 153.656,192.921 152.527,190.693 C 151.396,188.464 150.06,184.894 148.519,179.986 C 144.471,185.136 141.295,188.896 138.995,191.263 C 136.695,193.632 134.783,195.177 133.262,195.904 C 131.739,196.629 130.114,196.992 128.383,196.992 C 126.586,196.992 125.158,196.478 124.103,195.449 C 123.048,194.42 122.52,193.082 122.52,191.437 C 122.52,189.689 123.092,188.249 124.234,187.117 C 125.38,185.986 126.834,185.42 128.601,185.42 C 129.535,185.42 130.592,185.705 131.771,186.272 C 133.501,187.122 134.747,187.547 135.506,187.547 C 136.507,187.547 137.405,187.338 138.201,186.918 C 139.236,186.395 140.547,185.262 142.137,183.516 C 143.103,182.436 144.88,180.131 147.47,176.608 C 144.146,164.419 141.549,157.127 139.681,154.73 C 138.493,153.188 136.994,152.417 135.182,152.417 C 134.242,152.417 133.09,152.556 131.731,152.83 L 132.203,150.82 z "
   id="path3340" />

				</g>

				<path
   d="M 188.875,113.224 L 115.375,113.224 C 113.919,113.224 112.673,114.27 112.42,115.703 L 97.794,198.758 L 90.61,171.46 C 90.362,170.519 89.672,169.756 88.761,169.414 C 87.849,169.072 86.828,169.195 86.023,169.742 L 73.023,178.576 C 71.697,179.477 71.314,181.261 72.152,182.627 L 72.881,183.815 C 73.697,185.145 75.398,185.628 76.791,184.923 L 83.143,181.712 L 95.488,225.538 C 95.867,226.884 97.126,227.789 98.523,227.721 C 99.919,227.653 101.084,226.628 101.329,225.252 L 118.888,126.892 L 188.877,126.892 C 190.534,126.892 191.877,125.549 191.877,123.892 L 191.877,116.224 C 191.875,114.566 190.531,113.224 188.875,113.224 z "
   id="path3342" />

			</g>

		</g>
    <g
       transform="translate(-67.95089,-105.8375)"
       id="X">
			<g
   id="g3345">
				<path
   d="M 131.213,149.763 L 149.209,146.694 C 152.476,151.815 154.779,157.454 156.121,163.606 C 159.49,158.622 162.032,155.133 163.752,153.138 C 166.055,150.457 167.956,148.713 169.45,147.905 C 170.945,147.098 172.535,146.694 174.221,146.694 C 176.111,146.694 177.563,147.215 178.577,148.257 C 179.592,149.297 180.099,150.704 180.099,152.473 C 180.099,154.141 179.591,155.502 178.577,156.562 C 177.562,157.621 176.301,158.148 174.788,158.148 C 173.688,158.148 172.425,157.933 170.998,157.5 C 169.569,157.067 168.583,156.85 168.032,156.85 C 166.588,156.85 165.214,157.368 163.908,158.399 C 162.117,159.808 159.918,162.817 157.305,167.422 C 160.217,177.715 162.544,183.99 164.292,186.252 C 165.319,187.592 166.363,188.26 167.427,188.26 C 168.317,188.26 169.088,188.018 169.739,187.531 C 170.731,186.748 172.258,184.785 174.313,181.648 L 176.202,182.775 C 173.187,187.859 170.241,191.441 167.365,193.519 C 165.173,195.128 163.014,195.935 160.89,195.935 C 158.696,195.935 156.872,195.443 155.415,194.458 C 153.959,193.472 152.666,191.864 151.537,189.636 C 150.406,187.407 149.07,183.837 147.529,178.929 C 143.481,184.079 140.305,187.839 138.005,190.206 C 135.705,192.575 133.793,194.12 132.272,194.847 C 130.749,195.572 129.124,195.935 127.393,195.935 C 125.596,195.935 124.168,195.421 123.113,194.392 C 122.058,193.363 121.53,192.025 121.53,190.38 C 121.53,188.632 122.102,187.192 123.244,186.06 C 124.39,184.929 125.844,184.363 127.611,184.363 C 128.545,184.363 129.602,184.648 130.781,185.215 C 132.511,186.065 133.757,186.49 134.516,186.49 C 135.517,186.49 136.415,186.281 137.211,185.861 C 138.246,185.338 139.557,184.205 141.147,182.459 C 142.113,181.379 143.89,179.074 146.48,175.551 C 143.156,163.362 140.559,156.07 138.691,153.673 C 137.503,152.131 136.004,151.36 134.192,151.36 C 133.252,151.36 132.1,151.499 130.741,151.773 L 131.213,149.763 z "
   id="path3347" />

			</g>

			<g
   id="g3349">
				<defs
   id="defs3351">
					<path
   d="M 147.445,175.285 C 144.054,162.853 141.449,155.582 139.48,153.056 C 138.102,151.266 136.322,150.357 134.192,150.357 C 133.988,150.357 133.768,150.367 133.546,150.378 L 148.707,147.792 C 151.711,152.646 153.882,158.03 155.145,163.817 L 155.642,166.098 L 147.445,175.285 z "
   id="XMLID_1_" />

				</defs>

				<clipPath
   id="clipPath3770">
					<use
   id="use3772"
   x="0"
   y="0"
   width="228"
   height="228"
   xlink:href="#XMLID_1_" />

				</clipPath>

				
					<radialGradient
   cx="158.5034"
   cy="140.87601"
   r="14.7914"
   fx="158.5034"
   fy="140.87601"
   id="radialGradient3774"
   gradientUnits="userSpaceOnUse"
   gradientTransform="matrix(1.0191,0,0,1.1269,-6.7067,-10.8416)">
					<stop
   style="stop-color:white;stop-opacity:1"
   offset="0"
   id="stop3776" />

					<stop
   style="stop-color:black;stop-opacity:1"
   offset="1"
   id="stop3778" />

					<a:midPointStop
   offset="0"
   style="stop-color:#FFFFFF" />

					<a:midPointStop
   offset="0.5"
   style="stop-color:#FFFFFF" />

					<a:midPointStop
   offset="1"
   style="stop-color:#000000" />

				</radialGradient>

				
					<rect
   width="29.768999"
   height="33.75"
   x="139.938"
   y="131.03101"
   style="fill:url(#XMLID_11_)"
   clip-path="url(#XMLID_10_)"
   id="rect3362" />
 
			</g>

			<g
   id="g3364">
				<defs
   id="defs3366">
					<path
   d="M 156.949,164.165 C 160.287,159.227 162.831,155.737 164.51,153.791 C 166.72,151.217 168.542,149.533 169.926,148.784 C 171.267,148.06 172.712,147.693 174.221,147.693 C 175.843,147.693 177.034,148.105 177.862,148.953 C 178.695,149.808 179.1,150.959 179.1,152.472 C 179.1,153.883 178.693,154.994 177.855,155.869 C 177.031,156.728 176.028,157.146 174.789,157.146 C 173.791,157.146 172.613,156.943 171.29,156.541 C 169.727,156.068 168.692,155.848 168.033,155.848 C 166.366,155.848 164.77,156.442 163.289,157.612 C 161.383,159.112 159.142,162.16 156.436,166.928 L 156.949,164.165 z "
   id="XMLID_4_" />

				</defs>

				<clipPath
   id="clipPath3784">
					<use
   id="use3786"
   x="0"
   y="0"
   width="228"
   height="228"
   xlink:href="#XMLID_4_" />

				</clipPath>

				
					<radialGradient
   cx="167.7881"
   cy="143.93159"
   r="12.3218"
   fx="167.7881"
   fy="143.93159"
   id="radialGradient3788"
   gradientUnits="userSpaceOnUse">
					<stop
   style="stop-color:white;stop-opacity:1"
   offset="0"
   id="stop3790" />

					<stop
   style="stop-color:black;stop-opacity:1"
   offset="1"
   id="stop3792" />

					<a:midPointStop
   offset="0"
   style="stop-color:#FFFFFF" />

					<a:midPointStop
   offset="0.5028"
   style="stop-color:#FFFFFF" />

					<a:midPointStop
   offset="1"
   style="stop-color:#000000" />

				</radialGradient>

				
					<rect
   width="24.333"
   height="24.948999"
   x="155.62199"
   y="131.457"
   style="fill:url(#XMLID_13_)"
   clip-path="url(#XMLID_12_)"
   id="rect3377" />
 
			</g>

		</g>
    <g
       transform="translate(-67.95089,-105.8375)"
       id="root">
			<path
   d="M 187.885,112.166 L 114.385,112.166 C 112.929,112.166 111.683,113.212 111.43,114.645 L 96.803,197.7 L 89.619,170.402 C 89.371,169.461 88.681,168.698 87.77,168.356 C 86.858,168.014 85.837,168.137 85.032,168.684 L 72.032,177.518 C 70.706,178.419 70.323,180.203 71.161,181.569 L 71.89,182.757 C 72.706,184.087 74.407,184.57 75.8,183.865 L 82.152,180.654 L 94.497,224.48 C 94.876,225.826 96.135,226.731 97.532,226.663 C 98.928,226.595 100.093,225.57 100.338,224.194 L 117.897,125.834 L 187.886,125.834 C 189.543,125.834 190.886,124.491 190.886,122.834 L 190.886,115.166 C 190.885,113.509 189.542,112.166 187.885,112.166 z "
   style="fill:#7a0000"
   id="path3380" />

			<path
   d="M 187.885,113.666 L 114.385,113.666 C 113.657,113.666 113.034,114.188 112.908,114.906 L 97.095,204.699 L 88.17,170.784 C 88.046,170.313 87.701,169.931 87.245,169.762 C 86.789,169.591 86.279,169.652 85.876,169.926 L 72.876,178.76 C 72.213,179.21 72.022,180.102 72.441,180.785 L 73.17,181.973 C 73.578,182.638 74.428,182.878 75.125,182.527 L 83.103,178.495 L 95.942,224.074 C 96.131,224.748 96.761,225.2 97.459,225.166 C 98.157,225.132 98.74,224.62 98.862,223.932 L 116.641,124.335 L 187.886,124.335 C 188.715,124.335 189.386,123.663 189.386,122.835 L 189.386,115.167 C 189.385,114.338 188.713,113.666 187.885,113.666 z "
   style="fill:#ff1a00"
   id="path3382" />

			<g
   id="g3384">
				<defs
   id="defs3386">
					<polygon
   points="97.384,211.697 86.718,171.166 73.718,180 74.447,181.188 84.051,176.333 97.384,223.667 115.384,122.834 187.885,122.834 187.885,115.166 114.384,115.166 97.384,211.697 "
   id="XMLID_7_" />

				</defs>

				<clipPath
   id="clipPath3801">
					<use
   id="use3803"
   x="0"
   y="0"
   width="228"
   height="228"
   xlink:href="#XMLID_7_" />

				</clipPath>

				<radialGradient
   cx="114"
   cy="114"
   r="114"
   fx="114"
   fy="114"
   id="radialGradient3805"
   gradientUnits="userSpaceOnUse">
					<stop
   style="stop-color:white;stop-opacity:1"
   offset="0"
   id="stop3807" />

					<stop
   style="stop-color:red;stop-opacity:1"
   offset="1"
   id="stop3809" />

					<a:midPointStop
   offset="0"
   style="stop-color:#FFFFFF" />

					<a:midPointStop
   offset="0.5"
   style="stop-color:#FFFFFF" />

					<a:midPointStop
   offset="1"
   style="stop-color:#FF0000" />

				</radialGradient>

				<rect
   width="228"
   height="228"
   x="0"
   y="0"
   style="fill:url(#XMLID_15_)"
   clip-path="url(#XMLID_14_)"
   id="rect3397" />
 
			</g>

		</g>
  </g>
</svg>
